<svg xmlns="http://www.w3.org/2000/svg" viewBox="0 0 1368.56 967.37"><defs><style>.cls-1,.cls-2{fill:none;stroke-miterlimit:10;}.cls-1{stroke:#040000;}.cls-2{stroke:#e83818;}.cls-3{fill:#040000;}.cls-4{fill:#e71f19;}</style></defs><g id="图层_2" data-name="图层 2"><g id="图层_1-2" data-name="图层 1"><rect id="_----" data-name="----" class="cls-1" x="1283.59" y="120.57" width="84.47" height="146.22"/><rect id="_-----2" data-name="----" class="cls-1" x="1283.59" y="266.79" width="84.47" height="134.61"/><rect id="_-----3" data-name="----" class="cls-1" x="1283.59" y="401.4" width="84.47" height="67.3"/><rect id="_-----4" data-name="----" class="cls-1" x="1283.59" y="468.7" width="84.47" height="76.54"/><rect id="_-----5" data-name="----" class="cls-1" x="1283.59" y="545.24" width="84.47" height="112.86"/><rect id="_-----6" data-name="----" class="cls-1" x="1283.59" y="658.1" width="84.47" height="88.44"/><rect id="_-----7" data-name="----" class="cls-1" x="1283.59" y="746.54" width="84.47" height="60.03"/><rect id="_-----8" data-name="----" class="cls-1" x="1283.59" y="806.56" width="84.47" height="91.19"/><rect id="_-----9" data-name="----" class="cls-1" x="1253.24" y="826.45" width="30.36" height="71.31"/><rect id="_-----10" data-name="----" class="cls-1" x="1199.4" y="826.45" width="53.83" height="71.31"/><rect id="_-----11" data-name="----" class="cls-1" x="1159.5" y="699.11" width="93.74" height="71.31"/><rect id="_-----12" data-name="----" class="cls-1" x="1169.34" y="601.67" width="83.89" height="97.44"/><rect id="_-----13" data-name="----" class="cls-1" x="1169.34" y="426.09" width="83.89" height="175.58"/><rect id="_-----14" data-name="----" class="cls-1" x="1169.34" y="242.14" width="83.89" height="183.95"/><rect id="_-----15" data-name="----" class="cls-1" x="853.28" y="165.31" width="87.52" height="44.79"/><rect id="_-----16" data-name="----" class="cls-1" x="808.49" y="165.31" width="44.79" height="44.79"/><rect id="_-----17" data-name="----" class="cls-1" x="765.11" y="165.31" width="43.38" height="44.79"/><rect id="_-----18" data-name="----" class="cls-1" x="721.72" y="165.31" width="43.38" height="44.79"/><rect id="_-----19" data-name="----" class="cls-1" x="676.93" y="165.31" width="44.79" height="44.79"/><rect id="_-----20" data-name="----" class="cls-1" x="633.4" y="165.31" width="43.54" height="44.79"/><rect id="_-----21" data-name="----" class="cls-1" x="633.4" y="234.38" width="43.54" height="52.32"/><rect id="_-----22" data-name="----" class="cls-1" x="676.93" y="234.38" width="43.54" height="52.32"/><rect id="_-----23" data-name="----" class="cls-1" x="720.47" y="234.38" width="44.63" height="52.32"/><rect id="_-----24" data-name="----" class="cls-1" x="765.11" y="234.38" width="43.38" height="52.32"/><rect id="_-----25" data-name="----" class="cls-1" x="808.49" y="234.38" width="44.07" height="52.32"/><rect id="_-----26" data-name="----" class="cls-1" x="852.56" y="234.38" width="43" height="52.32"/><rect id="_-----27" data-name="----" class="cls-1" x="589.86" y="165.31" width="43.54" height="44.79"/><rect id="_-----28" data-name="----" class="cls-1" x="546.32" y="165.31" width="43.54" height="44.79"/><rect id="_-----29" data-name="----" class="cls-1" x="502.78" y="165.31" width="43.54" height="44.79"/><rect id="_-----30" data-name="----" class="cls-1" x="459.24" y="165.31" width="43.54" height="44.79"/><rect id="_-----31" data-name="----" class="cls-1" x="415.7" y="165.31" width="43.54" height="44.79"/><rect id="_-----32" data-name="----" class="cls-1" x="372.16" y="165.31" width="43.54" height="44.79"/><rect id="_-----33" data-name="----" class="cls-1" x="328.62" y="165.31" width="43.54" height="44.79"/><rect id="_-----34" data-name="----" class="cls-1" x="285.08" y="165.31" width="43.54" height="44.79"/><rect id="_-----35" data-name="----" class="cls-1" x="241.54" y="165.31" width="43.54" height="44.79"/><rect id="_-----36" data-name="----" class="cls-1" x="198" y="165.31" width="43.54" height="44.79"/><rect id="_-----37" data-name="----" class="cls-1" x="153.21" y="165.31" width="44.79" height="44.79"/><rect id="_-----38" data-name="----" class="cls-1" x="109.67" y="165.31" width="43.54" height="44.79"/><rect id="_-----39" data-name="----" class="cls-1" x="66.13" y="165.31" width="43.54" height="44.79"/><rect id="_-----40" data-name="----" class="cls-1" x="109.67" y="234.38" width="56.1" height="52.32"/><rect id="_-----41" data-name="----" class="cls-1" x="165.77" y="234.38" width="47.19" height="52.32"/><rect id="_-----42" data-name="----" class="cls-1" x="212.96" y="234.38" width="40.57" height="52.32"/><rect id="_-----43" data-name="----" class="cls-1" x="253.53" y="234.38" width="75.09" height="52.32"/><rect id="_-----44" data-name="----" class="cls-1" x="328.62" y="234.38" width="43.54" height="52.32"/><rect id="_-----45" data-name="----" class="cls-1" x="372.16" y="234.38" width="70.04" height="52.32"/><rect id="_-----46" data-name="----" class="cls-1" x="442.19" y="234.38" width="60.58" height="52.32"/><rect id="_-----47" data-name="----" class="cls-1" x="1169.34" y="128.59" width="83.89" height="79.28"/><rect id="_-----48" data-name="----" class="cls-1" x="1169.34" y="78.66" width="83.89" height="49.93"/><rect id="_-----49" data-name="----" class="cls-1" x="1178.69" y="826.45" width="20.72" height="42.63"/><rect id="S1" class="cls-2" x="1159.5" y="826.45" width="19.19" height="71.31"/><rect id="S2" class="cls-2" x="1283.59" y="96.7" width="84.47" height="23.87"/><rect id="S3" class="cls-2" x="66.13" y="234.38" width="43.54" height="52.32"/><rect id="S5" class="cls-2" x="895.56" y="234.38" width="45.24" height="52.32"/><rect id="S4" class="cls-2" x="502.78" y="234.38" width="69.03" height="52.32"/><polygon id="_-----50" data-name="----" class="cls-1" points="940.8 0.5 918.36 0.5 918.36 165.31 940.8 165.31 940.8 207.87 1070.16 207.87 1070.16 0.5 940.8 0.5"/><polygon id="W" class="cls-3" points="1169.34 0.5 1070.16 0.5 1070.16 207.87 940.8 207.87 940.8 210.09 0 210.09 0 234.38 940.8 234.38 940.8 251.24 1169.34 251.24 1169.34 207.87 1169.34 78.66 1253.24 78.66 1253.24 770.42 1159.5 770.42 1159.5 620.35 1070.12 620.35 1070.12 967.37 1159.5 967.37 1159.5 826.45 1253.24 826.45 1257.8 826.45 1283.59 826.45 1283.59 78.66 1300.32 78.66 1300.32 0.5 1169.34 0.5"/><polygon id="_-----51" data-name="----" class="cls-1" points="678.48 700.55 678.48 897.75 808.84 897.75 808.84 965.39 895.37 965.39 895.37 897.75 1070.12 897.75 1070.12 700.55 678.48 700.55"/><rect id="_1006" data-name="1006" class="cls-4" x="1027.24" y="199.7" width="21.19" height="16.33"/><rect id="_1110" data-name="1110" class="cls-4" x="1242.64" y="255.36" width="21.19" height="16.33" transform="translate(1516.76 -989.71) rotate(90)"/><rect id="_1110-2" data-name="1110" class="cls-4" x="1242.64" y="393.23" width="21.19" height="16.33" transform="translate(1654.64 -851.84) rotate(90)"/><rect id="_1122" data-name="1122" class="cls-4" x="1242.64" y="539.98" width="21.19" height="16.33" transform="translate(1801.38 -705.09) rotate(90)"/><rect id="_1115" data-name="1115" class="cls-4" x="1273" y="486.37" width="21.19" height="16.33" transform="translate(1778.13 -789.06) rotate(90)"/><rect id="_1111" data-name="1111" class="cls-4" x="1273" y="407.33" width="21.19" height="16.33" transform="translate(1699.09 -868.1) rotate(90)"/><rect id="_1109" data-name="1109" class="cls-4" x="1273" y="315.36" width="21.19" height="16.33" transform="translate(1607.12 -960.07) rotate(90)"/><rect id="_1105" data-name="1105" class="cls-4" x="1273" y="226.89" width="21.19" height="16.33" transform="translate(1518.65 -1048.54) rotate(90)"/><rect id="_1105-2" data-name="1105" class="cls-4" x="1273" y="141.46" width="21.19" height="16.33" transform="translate(1433.22 -1133.97) rotate(90)"/></g></g></svg>